<?xml version="1.0" encoding="UTF-8"?>
<svg xmlns="http://www.w3.org/2000/svg" xmlns:xlink="http://www.w3.org/1999/xlink" width="150px" height="50px" viewBox="0 0 150 50" version="1.1">
<g id="surface1">
<path style=" stroke:none;fill-rule:nonzero;fill:rgb(99.215686%,99.215686%,99.215686%);fill-opacity:1;" d="M 56 3 C 55.476562 4.25 55.476562 4.25 54.941406 5.527344 C 52.269531 12.132812 50.363281 17.875 50 25 C 50.988281 25.328125 51.980469 25.660156 53 26 C 52.339844 25.011719 51.679688 24.019531 51 23 C 51.339844 18.007812 53.15625 13.6875 55.0625 9.125 C 55.34375 8.4375 55.625 7.75 55.914062 7.039062 C 56.605469 5.355469 57.300781 3.679688 58 2 C 63.671875 5.289062 68.066406 8.53125 70 15 C 70.230469 17.945312 70.1875 20.863281 70.125 23.8125 C 70.117188 24.601562 70.105469 25.390625 70.097656 26.203125 C 70.074219 28.132812 70.039062 30.066406 70 32 C 71.039062 25.160156 71.699219 18.804688 70 12 C 75.875 13.875 75.875 13.875 77 15 C 77.328125 14.011719 77.660156 13.019531 78 12 C 81.464844 11.503906 81.464844 11.503906 85 11 C 85.027344 14.519531 85.046875 18.042969 85.0625 21.5625 C 85.070312 22.554688 85.078125 23.542969 85.085938 24.5625 C 85.121094 35.136719 85.121094 35.136719 84 40 C 78.769531 43.71875 73.804688 43.160156 67.574219 42.714844 C 65 42 65 42 63.769531 40.003906 C 63.515625 39.34375 63.261719 38.679688 63 38 C 62.011719 37.503906 62.011719 37.503906 61 37 C 61 38.648438 61 40.300781 61 42 C 56.566406 43.933594 53.492188 43.925781 48.761719 43.21875 C 44.03125 42.84375 39.355469 43.460938 34.648438 43.941406 C 30.5625 44.007812 27.847656 43.273438 24 42 C 23.671875 42 23.339844 42 23 42 C 19.5625 41.75 19.5625 41.75 16 41 C 13.660156 38.128906 13.492188 34.601562 13 31 C 11.679688 31 10.359375 31 9 31 C 9.328125 33.640625 9.660156 36.28125 10 39 C 4.34375 37.523438 4.34375 37.523438 2.824219 35.199219 C 1.066406 30.511719 1.351562 25.6875 3.125 21.0625 C 6.683594 17.144531 11.316406 16.941406 16.3125 16.125 C 20.765625 15.351562 24.402344 14.113281 28.453125 12.152344 C 33.808594 9.726562 39.449219 7.925781 45 6 C 45.496094 7.484375 45.496094 7.484375 46 9 C 46.617188 7.824219 46.617188 7.824219 47.25 6.625 C 49.832031 2.75 51.484375 1.496094 56 3 Z M 40 12 C 40 13.320312 40 14.640625 40 16 C 38.679688 16 37.359375 16 36 16 C 36 16.660156 36 17.320312 36 18 C 37.484375 18.988281 37.484375 18.988281 39 20 C 39.6875 22.625 39.6875 22.625 40 25 C 40.328125 25 40.660156 25 41 25 C 41 20.710938 41 16.421875 41 12 C 40.671875 12 40.339844 12 40 12 Z M 29 13 C 28.671875 17.289062 28.339844 21.578125 28 26 C 28.660156 25.671875 29.320312 25.339844 30 25 C 30.546875 22.714844 30.546875 22.714844 30.75 20.0625 C 30.847656 19.167969 30.945312 18.269531 31.046875 17.347656 C 31.265625 14.804688 31.265625 14.804688 29 13 Z M 60 23 C 61 26 61 26 61 26 Z M 9 25 C 9.988281 25.328125 10.980469 25.660156 12 26 C 12.660156 25.671875 13.320312 25.339844 14 25 C 14.328125 25.660156 14.660156 26.320312 15 27 C 15.328125 25.679688 15.660156 24.359375 16 23 C 13.351562 23 11.417969 23.980469 9 25 Z M 27 26 C 28 28 28 28 28 28 Z M 26 28 C 25.671875 29.320312 25.339844 30.640625 25 32 C 25.660156 30.679688 26.320312 29.359375 27 28 C 26.671875 28 26.339844 28 26 28 Z M 32 32 C 33 35 33 35 33 35 Z M 36 32 C 37 35 37 35 37 35 Z M 51 34 C 51 37 51 37 51 37 Z M 37 36 C 38 38 38 38 38 38 Z M 36 41 C 37 43 37 43 37 43 Z M 36 41 "/>
<path style=" stroke:none;fill-rule:nonzero;fill:rgb(99.215686%,99.215686%,99.215686%);fill-opacity:1;" d="M 110 11 C 113.300781 11 116.601562 11 120 11 C 120 21.558594 120 32.121094 120 43 C 116.699219 43 113.398438 43 110 43 C 110 32.441406 110 21.878906 110 11 Z M 114 15 C 114 22.921875 114 30.839844 114 39 C 114.660156 39 115.320312 39 116 39 C 116 31.078125 116 23.160156 116 15 C 115.339844 15 114.679688 15 114 15 Z M 114 15 "/>
<path style=" stroke:none;fill-rule:nonzero;fill:rgb(99.607843%,99.607843%,99.607843%);fill-opacity:1;" d="M 99 11 C 100.320312 11 101.640625 11 103 11 C 103 14.628906 103 18.261719 103 22 C 103.660156 22 104.320312 22 105 22 C 105 18.371094 105 14.738281 105 11 C 106.320312 11 107.640625 11 109 11 C 109 21.558594 109 32.121094 109 43 C 107.679688 43 106.359375 43 105 43 C 105 37.058594 105 31.121094 105 25 C 104.339844 25 103.679688 25 103 25 C 103 30.941406 103 36.878906 103 43 C 101.679688 43 100.359375 43 99 43 C 99 32.441406 99 21.878906 99 11 Z M 99 11 "/>
<path style=" stroke:none;fill-rule:nonzero;fill:rgb(99.607843%,99.607843%,99.607843%);fill-opacity:1;" d="M 87 11 C 90.300781 11 93.601562 11 97 11 C 97 14.300781 97 17.601562 97 21 C 95.679688 21 94.359375 21 93 21 C 93 19.019531 93 17.039062 93 15 C 92.339844 15 91.679688 15 91 15 C 91 17.96875 91 20.941406 91 24 C 92.980469 24 94.960938 24 97 24 C 97 30.269531 97 36.539062 97 43 C 93.699219 43 90.398438 43 87 43 C 87 40.03125 87 37.058594 87 34 C 88.320312 34 89.640625 34 91 34 C 91 35.648438 91 37.300781 91 39 C 91.660156 39 92.320312 39 93 39 C 93 35.371094 93 31.738281 93 28 C 91.019531 28 89.039062 28 87 28 C 87 22.390625 87 16.78125 87 11 Z M 87 11 "/>
<path style=" stroke:none;fill-rule:nonzero;fill:rgb(99.607843%,99.607843%,99.607843%);fill-opacity:1;" d="M 122 11 C 125.300781 11 128.601562 11 132 11 C 132 17.269531 132 23.539062 132 30 C 130.019531 30 128.039062 30 126 30 C 126 34.289062 126 38.578125 126 43 C 124.679688 43 123.359375 43 122 43 C 122 32.441406 122 21.878906 122 11 Z M 126 15 C 126 18.960938 126 22.921875 126 27 C 126.660156 27 127.320312 27 128 27 C 128 23.039062 128 19.078125 128 15 C 127.339844 15 126.679688 15 126 15 Z M 126 15 "/>
<path style=" stroke:none;fill-rule:nonzero;fill:rgb(99.607843%,99.607843%,99.607843%);fill-opacity:1;" d="M 141 11 C 143.96875 11 146.941406 11 150 11 C 150 14.960938 150 18.921875 150 23 C 147.03125 23 144.058594 23 141 23 C 141 19.039062 141 15.078125 141 11 Z M 141 11 "/>
<path style=" stroke:none;fill-rule:nonzero;fill:rgb(99.607843%,99.607843%,99.607843%);fill-opacity:1;" d="M 134 11 C 135.980469 11 137.960938 11 140 11 C 140 11.988281 140 12.980469 140 14 C 139.339844 14 138.679688 14 138 14 C 138 16.96875 138 19.941406 138 23 C 137.339844 23 136.679688 23 136 23 C 136 20.03125 136 17.058594 136 14 C 135.339844 14 134.679688 14 134 14 C 134 13.011719 134 12.019531 134 11 Z M 134 11 "/>
</g>
</svg>
